<svg width="24" height="24" viewBox="0 0 24 24" fill="none" xmlns="http://www.w3.org/2000/svg">
<g clip-path="url(#clip0_2748_344873)">
<g filter="url(#filter0_ddd_2748_344873)">
<mask id="path-1-outside-1_2748_344873" maskUnits="userSpaceOnUse" x="2.20312" y="2.20361" width="20" height="20" fill="black">
<rect fill="white" x="2.20312" y="2.20361" width="20" height="20"/>
<path d="M17.5832 9.37592C17.8132 9.14589 18.1862 9.14589 18.4162 9.37592L20.6237 11.5835C20.8538 11.8135 20.8538 12.1864 20.6237 12.4165L18.4162 14.624C18.1862 14.8541 17.8132 14.8541 17.5832 14.624C17.3532 14.394 17.3532 14.0211 17.5832 13.791L18.7178 12.6564L12.6562 12.6564L12.6562 18.7182L13.7908 17.5837C14.0208 17.3536 14.3937 17.3536 14.6238 17.5837C14.8538 17.8137 14.8538 18.1866 14.6238 18.4167L12.4162 20.6242C12.1862 20.8543 11.8132 20.8543 11.5832 20.6242L9.37565 18.4167C9.14562 18.1866 9.14562 17.8137 9.37565 17.5837C9.60567 17.3536 9.97862 17.3536 10.2087 17.5837L11.3432 18.7182L11.3431 12.6564L5.28164 12.6565L6.4162 13.791C6.64623 14.0211 6.64623 14.394 6.41621 14.624C6.18618 14.8541 5.81323 14.8541 5.5832 14.624L3.37565 12.4165C3.14562 12.1865 3.14562 11.8135 3.37565 11.5835L5.5832 9.37593C5.81323 9.14591 6.18618 9.14591 6.4162 9.37593C6.64623 9.60596 6.64623 9.97891 6.41621 10.2089L5.28164 11.3435L11.3431 11.3434L11.3432 5.28218L10.2086 6.41669C9.97861 6.64672 9.60566 6.64672 9.37563 6.41669C9.1456 6.18667 9.1456 5.81372 9.37563 5.58369L11.5832 3.37613C11.8132 3.14611 12.1862 3.14611 12.4162 3.37613L14.6237 5.58369C14.8538 5.81372 14.8538 6.18667 14.6237 6.41669C14.3937 6.64672 14.0208 6.64672 13.7907 6.41669L12.6561 5.28208L12.6562 11.3434L18.7177 11.3434L17.5832 10.2089C17.3532 9.97889 17.3532 9.60595 17.5832 9.37592Z"/>
</mask>
<path d="M17.5832 9.37592C17.8132 9.14589 18.1862 9.14589 18.4162 9.37592L20.6237 11.5835C20.8538 11.8135 20.8538 12.1864 20.6237 12.4165L18.4162 14.624C18.1862 14.8541 17.8132 14.8541 17.5832 14.624C17.3532 14.394 17.3532 14.0211 17.5832 13.791L18.7178 12.6564L12.6562 12.6564L12.6562 18.7182L13.7908 17.5837C14.0208 17.3536 14.3937 17.3536 14.6238 17.5837C14.8538 17.8137 14.8538 18.1866 14.6238 18.4167L12.4162 20.6242C12.1862 20.8543 11.8132 20.8543 11.5832 20.6242L9.37565 18.4167C9.14562 18.1866 9.14562 17.8137 9.37565 17.5837C9.60567 17.3536 9.97862 17.3536 10.2087 17.5837L11.3432 18.7182L11.3431 12.6564L5.28164 12.6565L6.4162 13.791C6.64623 14.0211 6.64623 14.394 6.41621 14.624C6.18618 14.8541 5.81323 14.8541 5.5832 14.624L3.37565 12.4165C3.14562 12.1865 3.14562 11.8135 3.37565 11.5835L5.5832 9.37593C5.81323 9.14591 6.18618 9.14591 6.4162 9.37593C6.64623 9.60596 6.64623 9.97891 6.41621 10.2089L5.28164 11.3435L11.3431 11.3434L11.3432 5.28218L10.2086 6.41669C9.97861 6.64672 9.60566 6.64672 9.37563 6.41669C9.1456 6.18667 9.1456 5.81372 9.37563 5.58369L11.5832 3.37613C11.8132 3.14611 12.1862 3.14611 12.4162 3.37613L14.6237 5.58369C14.8538 5.81372 14.8538 6.18667 14.6237 6.41669C14.3937 6.64672 14.0208 6.64672 13.7907 6.41669L12.6561 5.28208L12.6562 11.3434L18.7177 11.3434L17.5832 10.2089C17.3532 9.97889 17.3532 9.60595 17.5832 9.37592Z" fill="#111417"/>
<path d="M17.5832 9.37592C17.8132 9.14589 18.1862 9.14589 18.4162 9.37592L20.6237 11.5835C20.8538 11.8135 20.8538 12.1864 20.6237 12.4165L18.4162 14.624C18.1862 14.8541 17.8132 14.8541 17.5832 14.624C17.3532 14.394 17.3532 14.0211 17.5832 13.791L18.7178 12.6564L12.6562 12.6564L12.6562 18.7182L13.7908 17.5837C14.0208 17.3536 14.3937 17.3536 14.6238 17.5837C14.8538 17.8137 14.8538 18.1866 14.6238 18.4167L12.4162 20.6242C12.1862 20.8543 11.8132 20.8543 11.5832 20.6242L9.37565 18.4167C9.14562 18.1866 9.14562 17.8137 9.37565 17.5837C9.60567 17.3536 9.97862 17.3536 10.2087 17.5837L11.3432 18.7182L11.3431 12.6564L5.28164 12.6565L6.4162 13.791C6.64623 14.0211 6.64623 14.394 6.41621 14.624C6.18618 14.8541 5.81323 14.8541 5.5832 14.624L3.37565 12.4165C3.14562 12.1865 3.14562 11.8135 3.37565 11.5835L5.5832 9.37593C5.81323 9.14591 6.18618 9.14591 6.4162 9.37593C6.64623 9.60596 6.64623 9.97891 6.41621 10.2089L5.28164 11.3435L11.3431 11.3434L11.3432 5.28218L10.2086 6.41669C9.97861 6.64672 9.60566 6.64672 9.37563 6.41669C9.1456 6.18667 9.1456 5.81372 9.37563 5.58369L11.5832 3.37613C11.8132 3.14611 12.1862 3.14611 12.4162 3.37613L14.6237 5.58369C14.8538 5.81372 14.8538 6.18667 14.6237 6.41669C14.3937 6.64672 14.0208 6.64672 13.7907 6.41669L12.6561 5.28208L12.6562 11.3434L18.7177 11.3434L17.5832 10.2089C17.3532 9.97889 17.3532 9.60595 17.5832 9.37592Z" stroke="white" stroke-width="2" stroke-linecap="round" stroke-linejoin="round" mask="url(#path-1-outside-1_2748_344873)"/>
</g>
</g>
<defs>
<filter id="filter0_ddd_2748_344873" x="-45.7969" y="-37.7964" width="115.594" height="115.593" filterUnits="userSpaceOnUse" color-interpolation-filters="sRGB">
<feFlood flood-opacity="0" result="BackgroundImageFix"/>
<feColorMatrix in="SourceAlpha" type="matrix" values="0 0 0 0 0 0 0 0 0 0 0 0 0 0 0 0 0 0 127 0" result="hardAlpha"/>
<feOffset dy="8"/>
<feGaussianBlur stdDeviation="24"/>
<feColorMatrix type="matrix" values="0 0 0 0 0.952941 0 0 0 0 0.964706 0 0 0 0 0.972549 0 0 0 0.15 0"/>
<feBlend mode="normal" in2="BackgroundImageFix" result="effect1_dropShadow_2748_344873"/>
<feColorMatrix in="SourceAlpha" type="matrix" values="0 0 0 0 0 0 0 0 0 0 0 0 0 0 0 0 0 0 127 0" result="hardAlpha"/>
<feOffset dy="2"/>
<feGaussianBlur stdDeviation="3"/>
<feComposite in2="hardAlpha" operator="out"/>
<feColorMatrix type="matrix" values="0 0 0 0 0.239216 0 0 0 0 0.282353 0 0 0 0 0.32549 0 0 0 0.06 0"/>
<feBlend mode="normal" in2="effect1_dropShadow_2748_344873" result="effect2_dropShadow_2748_344873"/>
<feColorMatrix in="SourceAlpha" type="matrix" values="0 0 0 0 0 0 0 0 0 0 0 0 0 0 0 0 0 0 127 0" result="hardAlpha"/>
<feOffset/>
<feGaussianBlur stdDeviation="0.5"/>
<feComposite in2="hardAlpha" operator="out"/>
<feColorMatrix type="matrix" values="0 0 0 0 0.239216 0 0 0 0 0.282353 0 0 0 0 0.32549 0 0 0 0.36 0"/>
<feBlend mode="normal" in2="effect2_dropShadow_2748_344873" result="effect3_dropShadow_2748_344873"/>
<feBlend mode="normal" in="SourceGraphic" in2="effect3_dropShadow_2748_344873" result="shape"/>
</filter>
<clipPath id="clip0_2748_344873">
<rect width="24" height="24" fill="white"/>
</clipPath>
</defs>
</svg>
